#Comment line ignore any data following # character 
#Hierarchical Translation and Rotation (.htr) file 
[Header]	
#Header keywords are followed by a single value 
FileType HTR		#Single word string
DataType HTRS		#Translation followed by rotation and scale data
FileVersion 1		#integer
NumSegments 64		#integer
NumFrames 3		#integer
DataFrameRate 30		#integer, data frame rate in this file
EulerRotationOrder ZYX
CalibrationUnits mm
RotationUnits Degrees
GlobalAxisofGravity Y
BoneLengthAxis Y
ScaleFactor 1.00
[SegmentNames&Hierarchy]
#CHILD	PARENT
Pinger_Root GLOBAL
Pelvis Pinger_Root
L_Hip Pelvis
R_Hip Pelvis
Rear_Leg01 Pelvis
Spine1 Pelvis
L_Leg01 L_Hip
L_Leg02 L_Leg01
L_Leg03 L_Leg02
L_Foot L_Leg03
L_Toe1_01 L_Foot
L_Toe2_01 L_Foot
L_Toe3_01 L_Foot
planeAlignerLeft L_Foot
L_Toe1_02 L_Toe1_01
L_Toe1_03 L_Toe1_02
L_Toe2_02 L_Toe2_01
L_Toe2_03 L_Toe2_02
L_Toe3_02 L_Toe3_01
L_Toe3_03 L_Toe3_02
planeLockWeightLeft planeAlignerLeft
R_Leg01 R_Hip
R_Leg02 R_Leg01
R_Leg03 R_Leg02
R_Foot R_Leg03
planeAlignerRight R_Foot
R_Toe1_01 R_Foot
R_Toe2_01 R_Foot
R_Toe3_01 R_Foot
planeLockWeightRight planeAlignerRight
R_Toe1_02 R_Toe1_01
R_Toe1_03 R_Toe1_02
R_Toe2_02 R_Toe2_01
R_Toe2_03 R_Toe2_02
R_Toe3_02 R_Toe3_01
R_Toe3_03 R_Toe3_02
Rear_Leg02 Rear_Leg01
Rear_Leg03 Rear_Leg02
Rear_Leg04 Rear_Leg03
Rear_Foot Rear_Leg04
planeAlignerCenter Rear_Foot
Rear_Toe1_01 Rear_Foot
Rear_Toe2_01 Rear_Foot
Rear_Toe3_01 Rear_Foot
planeLockWeightCenter planeAlignerCenter
Rear_Toe1_02 Rear_Toe1_01
Rear_Toe1_03 Rear_Toe1_02
Rear_Toe2_02 Rear_Toe2_01
Rear_Toe2_03 Rear_Toe2_02
Rear_Toe3_02 Rear_Toe3_01
Rear_Toe3_03 Rear_Toe3_02
Back_Bone Spine1
Head Spine1
Motor_Bone Back_Bone
Ping_Mechanism Back_Bone
BN_LookIK Head
bottomMouth Head
L_Mouth01 Head
L_mouthFront Head
mouthGun Head
R_Mouth01 Head
R_mouthFront Head
TopMouth Head
weapon_bone Head
[BasePosition]
#SegmentName Tx, Ty, Tz, Rx, Ry, Rz, BoneLength
Pinger_Root 0.000000 0.000000 0.000000 -90.000000 0.000000 0.000000 10.000000 
Pelvis 0.000000 0.000000 0.000000 0.000000 0.000000 0.000000 10.000000 
L_Hip 0.000000 0.000000 0.000000 0.000000 0.000000 0.000000 10.000000 
R_Hip 0.000000 0.000000 0.000000 0.000000 0.000000 0.000000 10.000000 
Rear_Leg01 0.000000 0.000000 0.000000 0.000000 0.000000 0.000000 10.000000 
Spine1 0.000000 0.000000 0.000000 0.000000 0.000000 0.000000 10.000000 
L_Leg01 0.000000 0.000000 0.000000 0.000000 0.000000 0.000000 10.000000 
L_Leg02 0.000000 0.000000 0.000000 0.000000 0.000000 0.000000 10.000000 
L_Leg03 0.000000 0.000000 0.000000 0.000000 0.000000 0.000000 10.000000 
L_Foot 0.000000 0.000000 0.000000 0.000000 0.000000 0.000000 10.000000 
L_Toe1_01 0.000000 0.000000 0.000000 0.000000 0.000000 0.000000 10.000000 
L_Toe2_01 0.000000 0.000000 0.000000 0.000000 0.000000 0.000000 10.000000 
L_Toe3_01 0.000000 0.000000 0.000000 0.000000 0.000000 0.000000 10.000000 
planeAlignerLeft 0.000000 0.000000 0.000000 0.000000 0.000000 0.000000 10.000000 
L_Toe1_02 0.000000 0.000000 0.000000 0.000000 0.000000 0.000000 10.000000 
L_Toe1_03 0.000000 0.000000 0.000000 0.000000 0.000000 0.000000 10.000000 
L_Toe2_02 0.000000 0.000000 0.000000 0.000000 0.000000 0.000000 10.000000 
L_Toe2_03 0.000000 0.000000 0.000000 0.000000 0.000000 0.000000 10.000000 
L_Toe3_02 0.000000 0.000000 0.000000 0.000000 0.000000 0.000000 10.000000 
L_Toe3_03 0.000000 0.000000 0.000000 0.000000 0.000000 0.000000 10.000000 
planeLockWeightLeft 0.000000 0.000000 0.000000 0.000000 0.000000 0.000000 10.000000 
R_Leg01 0.000000 0.000000 0.000000 0.000000 0.000000 0.000000 10.000000 
R_Leg02 0.000000 0.000000 0.000000 0.000000 0.000000 0.000000 10.000000 
R_Leg03 0.000000 0.000000 0.000000 0.000000 0.000000 0.000000 10.000000 
R_Foot 0.000000 0.000000 0.000000 0.000000 0.000000 0.000000 10.000000 
planeAlignerRight 0.000000 0.000000 0.000000 0.000000 0.000000 0.000000 10.000000 
R_Toe1_01 0.000000 0.000000 0.000000 0.000000 0.000000 0.000000 10.000000 
R_Toe2_01 0.000000 0.000000 0.000000 0.000000 0.000000 0.000000 10.000000 
R_Toe3_01 0.000000 0.000000 0.000000 0.000000 0.000000 0.000000 10.000000 
planeLockWeightRight 0.000000 0.000000 0.000000 0.000000 0.000000 0.000000 10.000000 
R_Toe1_02 0.000000 0.000000 0.000000 0.000000 0.000000 0.000000 10.000000 
R_Toe1_03 0.000000 0.000000 0.000000 0.000000 0.000000 0.000000 10.000000 
R_Toe2_02 0.000000 0.000000 0.000000 0.000000 0.000000 0.000000 10.000000 
R_Toe2_03 0.000000 0.000000 0.000000 0.000000 0.000000 0.000000 10.000000 
R_Toe3_02 0.000000 0.000000 0.000000 0.000000 0.000000 0.000000 10.000000 
R_Toe3_03 0.000000 0.000000 0.000000 0.000000 0.000000 0.000000 10.000000 
Rear_Leg02 0.000000 0.000000 0.000000 0.000000 0.000000 0.000000 10.000000 
Rear_Leg03 0.000000 0.000000 0.000000 0.000000 0.000000 0.000000 10.000000 
Rear_Leg04 0.000000 0.000000 0.000000 0.000000 0.000000 0.000000 10.000000 
Rear_Foot 0.000000 0.000000 0.000000 0.000000 0.000000 0.000000 10.000000 
planeAlignerCenter 0.000000 0.000000 0.000000 0.000000 0.000000 0.000000 10.000000 
Rear_Toe1_01 0.000000 0.000000 0.000000 0.000000 0.000000 0.000000 10.000000 
Rear_Toe2_01 0.000000 0.000000 0.000000 0.000000 0.000000 0.000000 10.000000 
Rear_Toe3_01 0.000000 0.000000 0.000000 0.000000 0.000000 0.000000 10.000000 
planeLockWeightCenter 0.000000 0.000000 0.000000 0.000000 0.000000 0.000000 10.000000 
Rear_Toe1_02 0.000000 0.000000 0.000000 0.000000 0.000000 0.000000 10.000000 
Rear_Toe1_03 0.000000 0.000000 0.000000 0.000000 0.000000 0.000000 10.000000 
Rear_Toe2_02 0.000000 0.000000 0.000000 0.000000 0.000000 0.000000 10.000000 
Rear_Toe2_03 0.000000 0.000000 0.000000 0.000000 0.000000 0.000000 10.000000 
Rear_Toe3_02 0.000000 0.000000 0.000000 0.000000 0.000000 0.000000 10.000000 
Rear_Toe3_03 0.000000 0.000000 0.000000 0.000000 0.000000 0.000000 10.000000 
Back_Bone 0.000000 0.000000 0.000000 0.000000 0.000000 0.000000 10.000000 
Head 0.000000 0.000000 0.000000 0.000000 0.000000 0.000000 10.000000 
Motor_Bone 0.000000 0.000000 0.000000 0.000000 0.000000 0.000000 10.000000 
Ping_Mechanism 0.000000 0.000000 0.000000 0.000000 0.000000 0.000000 10.000000 
BN_LookIK 0.000000 0.000000 0.000000 0.000000 0.000000 0.000000 10.000000 
bottomMouth 0.000000 0.000000 0.000000 0.000000 0.000000 0.000000 10.000000 
L_Mouth01 0.000000 0.000000 0.000000 0.000000 0.000000 0.000000 10.000000 
L_mouthFront 0.000000 0.000000 0.000000 0.000000 0.000000 0.000000 10.000000 
mouthGun 0.000000 0.000000 0.000000 0.000000 0.000000 0.000000 10.000000 
R_Mouth01 0.000000 0.000000 0.000000 0.000000 0.000000 0.000000 10.000000 
R_mouthFront 0.000000 0.000000 0.000000 0.000000 0.000000 0.000000 10.000000 
TopMouth 0.000000 0.000000 0.000000 0.000000 0.000000 0.000000 10.000000 
weapon_bone 0.000000 0.000000 0.000000 0.000000 0.000000 0.000000 10.000000 
#Beginning of Data. Separated by tabs
#Fr	Tx	Ty	Tz	Rx	Ry	Rz	SF
[Pinger_Root]
33 0.000000 0.000000 0.000000 -0.000069 -0.000033 -50.681255 0.000000
34 0.000000 0.000000 0.000000 -0.000068 -0.000034 -52.995045 0.000000
35 0.000000 0.000000 0.000000 -0.000068 -0.000035 -55.316475 0.000000
[Pelvis]
33 228.092224 334.203857 4396.209961 -55.310978 -80.638214 10.414928 4414.791016
34 264.263794 315.789581 4369.777344 -49.513813 -79.741806 6.430269 4389.135742
35 291.107361 295.208435 4347.897949 -45.530792 -79.051643 4.507181 4367.620605
[L_Hip]
33 5.766392 125.831482 872.656799 54.144588 -49.164455 -120.065559 881.701050
34 5.766392 125.831482 872.656799 51.363239 -46.553143 -118.245018 881.701050
35 5.766392 125.831482 872.656799 51.095673 -46.514771 -119.288887 881.701050
[R_Hip]
33 5.765438 125.836372 -872.654907 22.360062 45.995995 105.748024 881.699829
34 5.765438 125.836372 -872.654907 16.182375 45.226707 98.253708 881.699829
35 5.765438 125.836372 -872.654907 11.446122 45.067890 92.428169 881.699829
[Rear_Leg01]
33 -192.298416 -925.602966 -0.001907 167.588959 17.736042 -173.217697 945.367432
34 -192.298416 -925.602966 -0.001907 165.063568 11.304138 -168.978683 945.367432
35 -192.298416 -925.602966 -0.001907 162.884491 7.394947 -167.472382 945.367432
[Spine1]
33 290.604584 5.007505 0.000477 4.421257 -6.431215 18.786846 290.647736
34 290.604584 5.007505 0.000477 4.130621 -7.600379 18.447908 290.647736
35 290.604584 5.007505 0.000477 3.846128 -8.771214 18.113983 290.647736
[L_Leg01]
33 761.932007 -0.002384 -0.069261 45.688469 -25.782639 -29.505499 761.932068
34 761.932007 -0.002384 -0.069261 51.968025 -26.716797 -32.191063 761.932068
35 761.932007 -0.002384 -0.069261 55.470554 -24.879469 -34.201077 761.932068
[L_Leg02]
33 1441.140503 -0.000954 -0.000715 -1.347948 0.755805 -95.800278 1441.140503
34 1441.140503 -0.000954 -0.000715 -1.259973 0.693656 -93.526474 1441.140503
35 1441.140503 -0.000954 -0.000715 -1.423225 0.673486 -95.632607 1441.140503
[L_Leg03]
33 1686.963989 -0.000715 -0.000954 0.079480 -0.012826 88.324295 1686.963989
34 1686.963989 -0.000715 -0.000954 0.079490 -0.012764 88.234703 1686.963989
35 1686.963989 -0.000715 -0.000954 0.061461 -0.012326 93.414063 1686.963989
[L_Foot]
33 3041.570068 -30.715107 11.297464 -42.438751 52.891884 33.865650 3041.746094
34 3041.570068 -30.715107 11.297464 -45.259407 54.508083 30.193306 3041.746094
35 3041.570068 -30.715107 11.297464 -48.022896 55.588692 25.819530 3041.746094
[L_Toe1_01]
33 -188.216690 -224.732346 -21.137953 93.719086 -6.862507 -171.970444 293.899567
34 -188.216690 -224.732346 -21.137953 93.719086 -6.862507 -171.970444 293.899567
35 -188.216690 -224.732346 -21.137953 93.388107 -5.012638 -167.972351 293.899567
[L_Toe2_01]
33 200.746536 -219.926590 148.838394 -90.023987 -26.311703 -52.677628 332.896027
34 200.746536 -219.926590 148.838394 -90.023987 -26.311703 -52.677628 332.896027
35 200.746536 -219.926590 148.838394 -89.222862 -21.969971 -58.401501 332.896027
[L_Toe3_01]
33 188.832520 -219.859131 -191.078659 -99.788055 13.839008 -67.673027 347.140900
34 188.832520 -219.859131 -191.078659 -99.788055 13.839008 -67.673027 347.140900
35 188.832520 -219.859131 -191.078659 -101.613213 13.117322 -74.797401 347.140900
[planeAlignerLeft]
33 32.993553 -593.020630 101.088348 169.306686 -76.298271 89.968506 602.478943
34 32.993774 -593.020569 101.088333 169.306686 -76.298271 89.968506 602.478943
35 73.633263 -711.034668 62.107841 169.306686 -76.298271 89.968506 717.530151
[L_Toe1_02]
33 413.761139 0.000477 0.000000 0.001385 -25.850531 0.001385 413.761139
34 413.761139 0.000477 0.000000 0.001385 -25.845459 0.001385 413.761139
35 413.761139 0.000477 0.000000 0.001385 -25.840380 0.001385 413.761139
[L_Toe1_03]
33 464.317322 0.000358 -0.000089 0.003734 53.359097 0.003734 464.317322
34 464.317322 0.000358 -0.000089 0.003734 53.359097 0.003734 464.317322
35 464.317322 0.000358 -0.000089 0.004381 58.919762 0.004381 464.317322
[L_Toe2_02]
33 342.235809 -0.000477 0.000238 0.001188 -72.402016 0.001188 342.235809
34 342.235809 -0.000477 0.000238 0.001188 -72.402016 0.001188 342.235809
35 342.235809 -0.000477 0.000238 -0.008520 -64.528175 0.007341 342.235809
[L_Toe2_03]
33 420.210846 -0.000715 0.000000 0.029090 85.375511 0.029090 420.210846
34 420.210846 -0.000715 0.000000 0.029090 85.375511 0.029090 420.210846
35 420.210846 -0.000715 0.000000 -0.001318 68.614670 -0.004877 420.210846
[L_Toe3_02]
33 329.270111 0.000954 0.000000 0.001178 -80.480331 0.001178 329.270111
34 329.270111 0.000954 0.000000 0.001178 -80.480331 0.001178 329.270111
35 329.270111 0.000954 0.000000 0.001188 -72.273361 0.001188 329.270111
[L_Toe3_03]
33 439.137451 -0.001907 0.000954 -179.995956 78.605698 -179.992447 439.137451
34 439.137451 -0.001907 0.000954 -179.995956 78.605698 -179.992447 439.137451
35 439.137451 -0.001907 0.000954 0.011378 78.159149 0.011378 439.137451
[planeLockWeightLeft]
33 999.999023 0.098267 0.076143 -0.011826 -0.004376 0.005620 999.999023
34 999.999023 0.098267 0.076142 -0.011826 -0.004376 0.005620 999.999023
35 999.999023 0.098267 0.076142 -0.011826 -0.004376 0.005620 999.999023
[R_Leg01]
33 761.455627 -0.001907 -0.000358 127.285675 1.199000 36.248421 761.455688
34 761.455627 -0.001907 -0.000358 128.731628 4.425122 42.234039 761.455688
35 761.455627 -0.001907 -0.000358 129.608582 5.950727 47.235771 761.455688
[R_Leg02]
33 1441.140625 0.000000 -0.000238 -0.887847 -0.042572 -106.475594 1441.140625
34 1441.140625 0.000000 -0.000238 -0.818657 -0.048483 -104.274597 1441.140625
35 1441.140625 0.000000 -0.000238 -0.765249 -0.047668 -102.529228 1441.140625
[R_Leg03]
33 1686.963989 0.000954 0.001431 0.068105 -0.034863 128.454727 1686.963989
34 1686.963989 0.000954 0.001431 0.069849 -0.040033 129.627136 1686.963989
35 1686.963989 0.000954 0.001431 0.072860 -0.041714 130.403488 1686.963989
[R_Foot]
33 3041.560059 -30.531288 -11.204481 -2.906162 -24.282488 44.993694 3041.734131
34 3041.560059 -30.531288 -11.204481 -2.869593 -24.350302 44.572956 3041.734131
35 3041.560059 -30.531288 -11.204481 -2.832459 -24.417860 44.151936 3041.734131
[planeAlignerRight]
33 -126.629341 -479.621155 -351.473846 -31.663879 -67.314613 -68.939049 607.951721
34 -126.631897 -484.880981 -343.668152 -32.408413 -68.038681 -68.251274 607.661926
35 -126.634460 -490.140839 -335.862488 -33.200916 -68.759109 -67.515366 607.517822
[R_Toe1_01]
33 -188.383347 -224.864899 21.052242 72.247795 0.510300 -176.959808 294.101532
34 -188.383347 -224.864899 21.052242 73.180145 0.282002 -176.983246 294.101532
35 -188.383347 -224.864899 21.052242 74.112755 0.054068 -177.010406 294.101532
[R_Toe2_01]
33 200.637817 -220.002121 -148.787384 -86.749359 39.102238 -52.575466 332.857574
34 200.637817 -220.002121 -148.787384 -87.350212 38.290306 -53.052162 332.857574
35 200.637817 -220.002121 -148.787384 -87.935860 37.474606 -53.512814 332.857574
[R_Toe3_01]
33 188.606735 -220.092957 191.126343 -72.078659 -4.350224 -70.422028 347.192566
34 188.606735 -220.092957 191.126343 -72.307800 -5.433006 -70.223969 347.192566
35 188.606735 -220.092957 191.126343 -72.541229 -6.515296 -70.021126 347.192566
[planeLockWeightRight]
33 999.999756 -0.000209 0.075870 -0.011823 -0.004379 -0.000027 999.999756
34 999.999756 -0.000201 0.075872 -0.011823 -0.004379 -0.000027 999.999756
35 999.999695 -0.000192 0.075874 -0.011823 -0.004379 -0.000027 999.999695
[R_Toe1_02]
33 413.762085 0.000477 -0.000119 0.001396 -24.379536 0.001396 413.762085
34 413.762085 0.000477 -0.000119 0.001396 -24.374166 0.001396 413.762085
35 413.762085 0.000477 -0.000119 0.001396 -24.368786 0.001396 413.762085
[R_Toe1_03]
33 464.317810 0.000000 0.001088 0.007611 72.258224 0.007611 464.317810
34 464.317810 0.000000 0.001088 0.007609 72.254707 0.007609 464.317810
35 464.317810 0.000000 0.001088 0.007608 72.251198 0.007608 464.317810
[R_Toe2_02]
33 342.234741 -0.000954 0.000238 0.001191 -70.304535 0.001191 342.234741
34 342.234741 -0.000954 0.000238 0.001191 -70.296967 0.001191 342.234741
35 342.234741 -0.000954 0.000238 0.001191 -70.289421 0.001191 342.234741
[R_Toe2_03]
33 420.210846 0.000715 -0.000268 0.013252 79.838287 0.013252 420.210846
34 420.210846 0.000715 -0.000268 0.013553 80.064705 0.013553 420.210846
35 420.210846 0.000715 -0.000268 0.013869 80.291130 0.013869 420.210846
[R_Toe3_02]
33 329.270355 -0.000477 -0.000954 0.001180 -77.746086 0.001180 329.270355
34 329.270355 -0.000477 -0.000954 0.001180 -77.722198 0.001180 329.270355
35 329.270355 -0.000477 -0.000954 0.001180 -77.813751 0.001180 329.270355
[R_Toe3_03]
33 439.137939 0.000238 0.001431 -179.963089 88.296471 -179.959579 439.137939
34 439.137939 0.000238 0.001431 -179.969040 87.986755 -179.965546 439.137939
35 439.137939 0.000238 0.001431 -179.973404 87.676445 -179.969894 439.137939
[Rear_Leg02]
33 1162.777710 -0.029802 0.005960 8.003574 -6.468134 -165.470383 1162.777710
34 1162.777710 -0.029802 0.005960 5.998737 -5.632661 -160.825912 1162.777710
35 1162.777710 -0.029802 0.005960 3.837439 -4.542486 -153.584946 1162.777710
[Rear_Leg03]
33 607.192505 -0.013351 -0.073195 0.010100 -0.005844 76.458092 607.192505
34 607.192505 -0.013351 -0.073195 0.010144 -0.005766 75.582954 607.192505
35 607.192505 -0.013351 -0.073195 0.010230 -0.005612 73.846992 607.192505
[Rear_Leg04]
33 995.874512 -0.020504 -0.011921 -0.042836 -0.018161 88.207138 995.874573
34 995.874512 -0.020504 -0.011921 -0.045962 -0.015995 85.039673 995.874573
35 995.874512 -0.020504 -0.011921 -0.045217 -0.017993 80.019043 995.874573
[Rear_Foot]
33 3096.176270 -0.067472 -0.041425 -40.484341 76.144753 146.648071 3096.176270
34 3096.176270 -0.067472 -0.041425 -63.571323 82.225464 125.482567 3096.176270
35 3096.176270 -0.067472 -0.041425 -86.404716 84.902763 101.756104 3096.176270
[planeAlignerCenter]
33 135.550934 102.666283 -885.319214 11.763803 3.357278 176.035812 901.501282
34 88.431648 98.807693 -989.329102 11.574935 -2.464330 172.653702 998.175903
35 -20.339779 68.165398 -986.501587 12.239216 -8.063132 169.997955 989.062988
[Rear_Toe1_01]
33 0.653352 83.966492 -371.173737 -13.898565 59.019001 71.747162 380.553192
34 0.653352 83.966492 -371.173737 -3.009494 59.989353 77.263756 380.553192
35 0.653352 83.966492 -371.173737 9.153750 50.567890 84.998604 380.553192
[Rear_Toe2_01]
33 178.200760 -294.826019 -362.060547 15.898126 69.135025 -51.731861 499.765686
34 178.200760 -294.826019 -362.060547 6.771941 70.093071 -61.136150 499.765686
35 178.200760 -294.826019 -362.060547 -11.909913 58.364204 -78.811188 499.765686
[Rear_Toe3_01]
33 -153.359680 -308.780914 -362.060852 17.200977 72.151672 -98.069122 499.952881
34 -153.359680 -308.780914 -362.060852 -5.424632 66.184387 -124.488762 499.952881
35 -153.359680 -308.780914 -362.060852 -12.563331 45.924938 -136.819809 499.952881
[planeLockWeightCenter]
33 801.749023 0.000000 0.076103 -0.011814 -0.004373 -0.000015 801.749023
34 944.606262 0.000305 0.076160 -0.011814 -0.004373 -0.000015 944.606262
35 1000.000000 0.000610 0.076094 -0.011814 -0.004373 -0.000015 1000.000000
[Rear_Toe1_02]
33 379.707825 0.194073 0.000477 0.001332 -33.588612 0.001332 379.707855
34 379.707825 0.194073 0.000477 -0.000298 -32.443466 0.006965 379.707855
35 379.707825 0.194073 0.000477 0.001333 -33.345890 0.001333 379.707855
[Rear_Toe1_03]
33 500.129700 0.165701 0.000119 0.007203 71.245911 0.007203 500.129761
34 500.129700 0.165701 0.000119 0.000414 56.446815 0.007718 500.129761
35 500.129700 0.165701 0.000119 -0.004439 64.930214 -0.000857 500.129761
[Rear_Toe2_02]
33 340.494507 0.000238 -0.000954 0.000000 -89.747437 -0.004646 340.494507
34 340.494507 0.000238 -0.000954 0.001174 -85.842873 0.001174 340.494507
35 340.494507 0.000238 -0.000954 0.001174 -85.734833 0.001174 340.494507
[Rear_Toe2_03]
33 433.103577 0.000000 0.000238 -179.995300 67.308395 -179.998856 433.103546
34 433.103577 0.000000 0.000238 179.987732 79.021721 179.987732 433.103546
35 433.103577 0.000000 0.000238 179.987381 79.323364 179.987381 433.103546
[Rear_Toe3_02]
33 340.494141 -0.000358 -0.000477 -179.997681 -87.879105 -179.997681 340.494171
34 340.494141 -0.000358 -0.000477 -179.997681 -88.893059 -179.997681 340.494171
35 340.494141 -0.000358 -0.000477 0.000000 -89.461861 0.002347 340.494171
[Rear_Toe3_03]
33 433.103577 0.001431 -0.000238 179.992111 57.967747 179.999390 433.103546
34 433.103577 0.001431 -0.000238 -179.999405 62.288124 -179.995804 433.103546
35 433.103577 0.001431 -0.000238 -179.998718 68.309464 -179.995178 433.103546
[Back_Bone]
33 1312.175781 -701.934692 0.000954 0.000023 -0.000007 -85.606667 1488.125488
34 1312.175781 -701.934692 0.000954 0.000023 -0.000007 -85.606667 1488.125488
35 1312.175781 -701.934692 0.000954 0.000023 -0.000007 -85.606667 1488.125488
[Head]
33 1406.159424 809.709290 0.001431 0.000008 0.000003 7.767519 1622.625488
34 1406.159424 809.709290 0.001431 0.000008 0.000003 7.767519 1622.625488
35 1406.159424 809.709290 0.001431 0.000008 0.000003 7.767519 1622.625488
[Motor_Bone]
33 1158.364380 -417.834747 0.000477 -0.074054 -4.913877 -106.210922 1231.419434
34 1158.364380 -417.834747 0.000477 -0.086074 -2.667178 -106.076073 1231.419434
35 1158.364380 -417.834747 0.000477 -0.095385 0.076093 -105.915718 1231.419434
[Ping_Mechanism]
33 1247.654053 -447.447510 32.065315 0.000103 -0.000053 82.120995 1325.849976
34 1247.589478 -446.335144 38.028522 0.000103 -0.000053 82.120995 1325.571777
35 1247.524780 -445.222778 43.991734 0.000103 -0.000053 82.120995 1325.321289
[BN_LookIK]
33 193.241119 1380.371704 -0.002861 0.000000 89.965736 -31.038179 1393.832153
34 193.241119 1380.371704 -0.002861 0.000000 89.965736 -31.038179 1393.832153
35 193.241119 1380.371704 -0.002861 0.000000 89.965736 -31.038179 1393.832153
[bottomMouth]
33 -435.092926 615.759399 -0.000954 -0.000022 0.000016 73.527184 753.966492
34 -435.092926 615.759399 -0.000954 -0.000022 0.000016 73.527184 753.966492
35 -435.092926 615.759399 -0.000954 -0.000022 0.000016 73.527184 753.966492
[L_Mouth01]
33 554.440979 7.658243 838.222046 150.204178 23.759130 109.605339 1005.027161
34 554.440979 7.658243 838.222046 150.204178 23.759130 109.605339 1005.027161
35 554.440979 7.658243 838.222046 150.204178 23.759130 109.605339 1005.027161
[L_mouthFront]
33 551.629089 934.514771 339.150421 0.000081 2.804060 79.119301 1136.941284
34 551.629089 934.514771 339.150421 0.000081 2.804060 79.119301 1136.941284
35 551.629089 934.514771 339.150421 0.000081 2.804060 79.119301 1136.941284
[mouthGun]
33 55.332661 1627.420898 0.000000 0.000023 0.000009 -11.038128 1628.361328
34 55.332661 1627.420898 0.000000 0.000023 0.000009 -11.038128 1628.361328
35 55.332661 1627.420898 0.000000 0.000023 0.000009 -11.038128 1628.361328
[R_Mouth01]
33 554.442383 7.659197 -838.223938 29.795891 -23.759109 109.605331 1005.029541
34 554.442383 7.659197 -838.223938 29.795891 -23.759109 109.605331 1005.029541
35 554.442383 7.659197 -838.223938 29.795891 -23.759109 109.605331 1005.029541
[R_mouthFront]
33 551.629089 934.514282 -339.151367 0.000029 -2.803930 79.119133 1136.941162
34 551.629089 934.514282 -339.151367 0.000029 -2.803930 79.119133 1136.941162
35 551.629089 934.514282 -339.151367 0.000029 -2.803930 79.119133 1136.941162
[TopMouth]
33 461.269867 -56.106091 -0.008583 -0.000059 -0.000268 92.025169 464.669525
34 461.269867 -56.106091 -0.008583 -0.000059 -0.000268 92.025169 464.669525
35 461.269867 -56.106091 -0.008583 -0.000059 -0.000268 92.025169 464.669525
[weapon_bone]
33 -987.239868 1448.372803 0.001431 0.000000 89.965736 -31.038221 1752.833740
34 -987.239868 1448.372803 0.001431 0.000000 89.965736 -31.038221 1752.833740
35 -987.239868 1448.372803 0.001431 0.000000 89.965736 -31.038221 1752.833740
